<svg width="1000" height="460" viewBox="0 0 1000 460" fill="none" xmlns="http://www.w3.org/2000/svg" role="img" aria-labelledby="title desc">
  <title id="title">Ethan Chen Lu profile card</title>
  <desc id="desc">Full-stack systems builder working across healthcare IT, AI workflow products, and local-first software.</desc>
  <defs>
    <linearGradient id="bg" x1="50" y1="42" x2="950" y2="418" gradientUnits="userSpaceOnUse">
      <stop stop-color="#09111F"/>
      <stop offset="0.58" stop-color="#0D1117"/>
      <stop offset="1" stop-color="#152033"/>
    </linearGradient>
    <linearGradient id="rule" x1="110" y1="112" x2="890" y2="112" gradientUnits="userSpaceOnUse">
      <stop stop-color="#7AB7FF"/>
      <stop offset="0.52" stop-color="#303B4D"/>
      <stop offset="1" stop-color="#9BC7E9"/>
    </linearGradient>
    <radialGradient id="medicalGlow" cx="0" cy="0" r="1" gradientUnits="userSpaceOnUse" gradientTransform="translate(826 86) rotate(128) scale(330 440)">
      <stop stop-color="#B9DFFF" stop-opacity="0.22"/>
      <stop offset="1" stop-color="#B9DFFF" stop-opacity="0"/>
    </radialGradient>
    <filter id="shadow" x="24" y="12" width="952" height="424" filterUnits="userSpaceOnUse" color-interpolation-filters="sRGB">
      <feDropShadow dx="0" dy="22" stdDeviation="30" flood-color="#000000" flood-opacity="0.28"/>
    </filter>
  </defs>

  <rect x="54" y="42" width="892" height="376" rx="30" fill="url(#bg)" filter="url(#shadow)"/>
  <rect x="54.5" y="42.5" width="891" height="375" rx="29.5" stroke="#344255"/>
  <rect x="54" y="42" width="892" height="376" rx="30" fill="url(#medicalGlow)"/>

  <path d="M110 112H890" stroke="url(#rule)" stroke-width="2"/>
  <path d="M110 326H890" stroke="#263447"/>
  <path d="M110 326H360" stroke="#7AB7FF" stroke-width="2.5"/>

  <text x="110" y="102" fill="#8B9AAF" font-family="ui-monospace, SFMono-Regular, Menlo, Consolas, monospace" font-size="15" font-weight="800" letter-spacing="2.4">LOCAL-FIRST AI SYSTEMS</text>
  <text x="108" y="176" fill="#F0F6FC" font-family="ui-sans-serif, -apple-system, BlinkMacSystemFont, Segoe UI, sans-serif" font-size="54" font-weight="850" letter-spacing="-1.2">
    Ethan Chen Lu
  </text>
  <text x="112" y="218" fill="#D8E3EE" font-family="ui-sans-serif, -apple-system, BlinkMacSystemFont, Segoe UI, sans-serif" font-size="23" font-weight="650">
    Full-stack Systems Builder  |  Healthcare IT  |  AI Workflow Products
  </text>
  <text x="112" y="260" fill="#9BA7B4" font-family="ui-sans-serif, -apple-system, BlinkMacSystemFont, Segoe UI, sans-serif" font-size="17" font-weight="560">
    I build practical software where agents, data, and workflows stay visible and auditable.
  </text>

  <g font-family="ui-monospace, SFMono-Regular, Menlo, Consolas, monospace" font-size="15" font-weight="800">
    <rect x="112" y="286" width="128" height="36" rx="18" fill="#111827" stroke="#2F4560"/>
    <text x="132" y="309" fill="#7AB7FF">TypeScript</text>
    <rect x="256" y="286" width="112" height="36" rx="18" fill="#111827" stroke="#2F4560"/>
    <text x="280" y="309" fill="#D8E3EE">Electron</text>
    <rect x="384" y="286" width="96" height="36" rx="18" fill="#111827" stroke="#2F4560"/>
    <text x="408" y="309" fill="#B9DFFF">Python</text>
  </g>

  <g opacity="0.58">
    <rect x="748" y="138" width="128" height="66" rx="14" fill="#DCEEFF" fill-opacity="0.07" stroke="#B9DFFF" stroke-opacity="0.16"/>
    <path d="M804 154H824V170H840V190H824V206H804V190H788V170H804V154Z" fill="#B9DFFF" fill-opacity="0.24"/>
    <rect x="708" y="248" width="176" height="56" rx="12" fill="#DCEEFF" fill-opacity="0.06" stroke="#B9DFFF" stroke-opacity="0.14"/>
    <path d="M724 280H756L766 262L782 292L796 272H838" stroke="#B9DFFF" stroke-width="2" stroke-opacity="0.42"/>
    <path d="M646 114H890M646 338H890" stroke="#B9DFFF" stroke-opacity="0.1"/>
  </g>

  <g font-family="ui-sans-serif, -apple-system, BlinkMacSystemFont, Segoe UI, sans-serif" font-size="15" font-weight="650">
    <text x="112" y="366" fill="#F0F6FC">Email</text>
    <text x="162" y="366" fill="#9BA7B4">ethanclu.nz@gmail.com</text>
    <text x="370" y="366" fill="#F0F6FC">Web</text>
    <text x="410" y="366" fill="#9BA7B4">ethanchenlu.com</text>
    <text x="592" y="366" fill="#F0F6FC">LinkedIn</text>
    <text x="668" y="366" fill="#9BA7B4">/in/ethan-chen-lu</text>
  </g>
</svg>
