<svg width="1000" height="420" viewBox="0 0 1000 420" fill="none" xmlns="http://www.w3.org/2000/svg" role="img" aria-labelledby="title desc">
  <title id="title">Ethan Chen Lu profile card</title>
  <desc id="desc">Local-first AI systems, healthcare IT, AI workflow systems, and data integration.</desc>
  <defs>
    <linearGradient id="bg" x1="58" y1="48" x2="942" y2="372" gradientUnits="userSpaceOnUse">
      <stop stop-color="#0B111B"/>
      <stop offset="0.72" stop-color="#0D1117"/>
      <stop offset="1" stop-color="#111820"/>
    </linearGradient>
    <linearGradient id="edge" x1="86" y1="90" x2="914" y2="90" gradientUnits="userSpaceOnUse">
      <stop stop-color="#7AA2C7"/>
      <stop offset="0.5" stop-color="#2B3542"/>
      <stop offset="1" stop-color="#1B2430"/>
    </linearGradient>
    <radialGradient id="quietGlow" cx="0" cy="0" r="1" gradientUnits="userSpaceOnUse" gradientTransform="translate(770 78) rotate(135) scale(280 360)">
      <stop stop-color="#7AA2C7" stop-opacity="0.12"/>
      <stop offset="1" stop-color="#7AA2C7" stop-opacity="0"/>
    </radialGradient>
    <filter id="shadow" x="20" y="10" width="960" height="400" filterUnits="userSpaceOnUse" color-interpolation-filters="sRGB">
      <feDropShadow dx="0" dy="18" stdDeviation="26" flood-color="#000000" flood-opacity="0.24"/>
    </filter>
  </defs>

  <rect x="58" y="44" width="884" height="332" rx="24" fill="url(#bg)" filter="url(#shadow)"/>
  <rect x="58.5" y="44.5" width="883" height="331" rx="23.5" stroke="#30363D"/>
  <rect x="58" y="44" width="884" height="332" rx="24" fill="url(#quietGlow)"/>

  <path d="M94 88H906" stroke="url(#edge)" stroke-width="1.6"/>
  <path d="M94 308H906" stroke="#26313D"/>
  <path d="M94 308H282" stroke="#7AA2C7" stroke-width="2"/>

  <text x="94" y="78" fill="#9BA7B4" font-family="ui-monospace, SFMono-Regular, Menlo, Consolas, monospace" font-size="14" font-weight="700">LOCAL-FIRST AI SYSTEMS</text>
  <text x="92" y="148" fill="#F0F6FC" font-family="ui-sans-serif, -apple-system, BlinkMacSystemFont, Segoe UI, sans-serif" font-size="50" font-weight="800">
    Ethan Chen Lu
  </text>
  <text x="96" y="190" fill="#C9D1D9" font-family="ui-sans-serif, -apple-system, BlinkMacSystemFont, Segoe UI, sans-serif" font-size="24" font-weight="650">
    Healthcare IT &#183; AI Workflow Systems &#183; Data Integration
  </text>
  <text x="96" y="232" fill="#8B949E" font-family="ui-sans-serif, -apple-system, BlinkMacSystemFont, Segoe UI, sans-serif" font-size="17" font-weight="560">
    I build auditable software for agent workflows, operational data, and product systems.
  </text>

  <g font-family="ui-monospace, SFMono-Regular, Menlo, Consolas, monospace" font-size="15" font-weight="700">
    <rect x="96" y="260" width="126" height="34" rx="17" fill="#121A24" stroke="#2B3A4B"/>
    <text x="118" y="282" fill="#AFC4D8">TypeScript</text>
    <rect x="236" y="260" width="106" height="34" rx="17" fill="#121A24" stroke="#2B3A4B"/>
    <text x="260" y="282" fill="#AFC4D8">Electron</text>
    <rect x="356" y="260" width="92" height="34" rx="17" fill="#121A24" stroke="#2B3A4B"/>
    <text x="378" y="282" fill="#AFC4D8">Python</text>
  </g>

  <g opacity="0.7">
    <path d="M660 122H860M660 166H860M660 210H860M660 254H860" stroke="#27313D"/>
    <path d="M692 102V274M768 102V274M844 102V274" stroke="#202A35"/>
    <circle cx="692" cy="166" r="3" fill="#7AA2C7"/>
    <circle cx="768" cy="210" r="3" fill="#7AA2C7"/>
    <circle cx="844" cy="122" r="3" fill="#7AA2C7"/>
    <path d="M692 166L768 210L844 122" stroke="#7AA2C7" stroke-opacity="0.68"/>
  </g>

  <g font-family="ui-sans-serif, -apple-system, BlinkMacSystemFont, Segoe UI, sans-serif" font-size="15" font-weight="650">
    <text x="660" y="324" fill="#F0F6FC">Now</text>
    <text x="704" y="324" fill="#8B949E">building Locus</text>
    <text x="660" y="348" fill="#F0F6FC">Selected</text>
    <text x="736" y="348" fill="#8B949E">IdeaSense AI / Portfolio</text>
  </g>
</svg>
